<svg width="50" height="50" viewBox="0 0 50 50" fill="none" xmlns="http://www.w3.org/2000/svg">
<path d="M13 48H37.5" stroke="#09006B" stroke-width="3" stroke-linecap="round"/>
<mask id="path-2-inside-1_5_90" fill="white">
<path fill-rule="evenodd" clip-rule="evenodd" d="M20.4416 0C17.0023 0 13.948 2.19813 12.8557 5.45929L12.3397 7H8C3.58172 7 0 10.5817 0 15V35C0 39.4183 3.58172 43 8 43H42C46.4183 43 50 39.4183 50 35V15C50 10.5817 46.4183 7 42 7H37.9282L37.6414 5.9295C36.7043 2.432 33.5348 0 29.914 0H20.4416Z"/>
</mask>
<path fill-rule="evenodd" clip-rule="evenodd" d="M20.4416 0C17.0023 0 13.948 2.19813 12.8557 5.45929L12.3397 7H8C3.58172 7 0 10.5817 0 15V35C0 39.4183 3.58172 43 8 43H42C46.4183 43 50 39.4183 50 35V15C50 10.5817 46.4183 7 42 7H37.9282L37.6414 5.9295C36.7043 2.432 33.5348 0 29.914 0H20.4416Z" fill="white"/>
<path d="M12.8557 5.45929L9.06283 4.18894V4.18894L12.8557 5.45929ZM12.3397 7V11H15.2184L16.1326 8.27035L12.3397 7ZM37.9282 7L34.0645 8.03526L34.8589 11H37.9282V7ZM37.6414 5.9295L33.7777 6.96475V6.96475L37.6414 5.9295ZM16.6487 6.72965C17.1948 5.09906 18.722 4 20.4416 4V-4C15.2827 -4 10.7012 -0.702812 9.06283 4.18894L16.6487 6.72965ZM16.1326 8.27035L16.6487 6.72964L9.06283 4.18894L8.5468 5.72965L16.1326 8.27035ZM8 11H12.3397V3H8V11ZM4 15C4 12.7909 5.79086 11 8 11V3C1.37258 3 -4 8.37258 -4 15H4ZM4 35V15H-4V35H4ZM8 39C5.79086 39 4 37.2091 4 35H-4C-4 41.6274 1.37259 47 8 47V39ZM42 39H8V47H42V39ZM46 35C46 37.2091 44.2091 39 42 39V47C48.6274 47 54 41.6274 54 35H46ZM46 15V35H54V15H46ZM42 11C44.2091 11 46 12.7909 46 15H54C54 8.37258 48.6274 3 42 3V11ZM37.9282 11H42V3H37.9282V11ZM33.7777 6.96475L34.0645 8.03526L41.7919 5.96474L41.5051 4.89424L33.7777 6.96475ZM29.914 4C31.7244 4 33.3091 5.216 33.7777 6.96475L41.5051 4.89424C40.0994 -0.351996 35.3453 -4 29.914 -4V4ZM20.4416 4H29.914V-4H20.4416V4Z" fill="#09006B" mask="url(#path-2-inside-1_5_90)"/>
<circle cx="25" cy="25" r="9" fill="white" stroke="#FF7294" stroke-width="4"/>
</svg>
