<svg width="44" height="44" viewBox="0 0 44 44" fill="none" xmlns="http://www.w3.org/2000/svg">
<path d="M23.1646 24C23.1646 22.3256 23.6304 18.8854 25.4938 18.5201C27.823 18.0634 32.4814 17.1501 34.2284 19.89C35.6259 22.082 34.8107 23.5433 34.2284 24H22" stroke="#FF7294" stroke-width="3" stroke-linecap="round"/>
<path d="M40.3334 22H9.16671V11.7519C9.16027 11.0917 9.33452 10.4423 9.67059 9.87395C10.0067 9.30561 10.4917 8.84 11.0734 8.52749C11.7165 8.17895 12.4494 8.0313 13.1774 8.10363C12.8069 9.22573 12.7542 10.4285 13.0253 11.5787C13.2964 12.7289 13.8806 13.7815 14.7132 14.6201L16.6576 16.5644C16.8278 16.7347 17.0299 16.8698 17.2523 16.9619C17.4747 17.0541 17.7131 17.1015 17.9538 17.1015C18.1946 17.1015 18.433 17.0541 18.6554 16.9619C18.8778 16.8698 19.0798 16.7347 19.25 16.5644L25.7312 10.0833C25.9014 9.91312 26.0365 9.71105 26.1287 9.48864C26.2208 9.26623 26.2683 9.02784 26.2683 8.78709C26.2683 8.54635 26.2208 8.30796 26.1287 8.08555C26.0365 7.86314 25.9014 7.66106 25.7312 7.49087L23.7868 5.54653C22.7046 4.46922 21.2732 3.81393 19.7506 3.69879C18.2279 3.58365 16.7142 4.01623 15.4823 4.91856C14.3716 4.48477 13.1718 4.32891 11.9871 4.46451C10.8025 4.60012 9.66887 5.0231 8.68494 5.69665C7.701 6.37021 6.89651 7.27394 6.34144 8.32927C5.78637 9.38459 5.49753 10.5595 5.50004 11.7519V22H3.66671C3.18048 22 2.71416 22.1931 2.37034 22.537C2.02653 22.8808 1.83337 23.3471 1.83337 23.8333C1.83337 24.3195 2.02653 24.7859 2.37034 25.1297C2.71416 25.4735 3.18048 25.6666 3.66671 25.6666H5.50004V31.1666C5.50353 32.3003 5.85786 33.4052 6.51437 34.3294C7.17089 35.2537 8.0974 35.9521 9.16671 36.3287V38.5C9.16671 38.9862 9.35986 39.4525 9.70368 39.7963C10.0475 40.1402 10.5138 40.3333 11 40.3333C11.4863 40.3333 11.9526 40.1402 12.2964 39.7963C12.6402 39.4525 12.8334 38.9862 12.8334 38.5V36.6666H31.1667V38.5C31.1667 38.9862 31.3599 39.4525 31.7037 39.7963C32.0475 40.1402 32.5138 40.3333 33 40.3333C33.4863 40.3333 33.9526 40.1402 34.2964 39.7963C34.6402 39.4525 34.8334 38.9862 34.8334 38.5V36.3288C35.9027 35.9522 36.8292 35.2538 37.4857 34.3295C38.1422 33.4052 38.4966 32.3004 38.5 31.1666V25.6666H40.3334C40.8196 25.6666 41.2859 25.4735 41.6297 25.1297C41.9736 24.7859 42.1667 24.3195 42.1667 23.8333C42.1667 23.3471 41.9736 22.8808 41.6297 22.537C41.2859 22.1931 40.8196 22 40.3334 22ZM17.3057 8.13897C17.8218 7.6242 18.5211 7.33511 19.25 7.33511C19.979 7.33511 20.6782 7.6242 21.1944 8.13897L21.8425 8.78709L17.9539 12.6758L17.3058 12.0277C16.7907 11.5117 16.5014 10.8124 16.5014 10.0833C16.5014 9.35426 16.7907 8.65498 17.3057 8.13897V8.13897ZM34.8334 31.1666C34.833 31.6528 34.6398 32.1189 34.296 32.4627C33.9523 32.8064 33.4862 32.9997 33 33H11C10.5139 32.9997 10.0478 32.8064 9.70404 32.4627C9.36029 32.1189 9.16703 31.6528 9.16671 31.1666V25.6666H34.8334V31.1666Z" fill="#09006B"/>
</svg>
