<svg width="48" height="48" viewBox="0 0 48 48" fill="none" xmlns="http://www.w3.org/2000/svg">
<path d="M34 18.56C34.7912 18.56 35.5645 18.3254 36.2223 17.8859C36.8801 17.4464 37.3928 16.8216 37.6955 16.0907C37.9983 15.3598 38.0775 14.5556 37.9232 13.7796C37.7688 13.0037 37.3879 12.291 36.8285 11.7316C36.269 11.1722 35.5563 10.7912 34.7804 10.6369C34.0045 10.4825 33.2002 10.5617 32.4693 10.8645C31.7384 11.1672 31.1137 11.6799 30.6741 12.3377C30.2346 12.9955 30 13.7689 30 14.56C30 15.6209 30.4215 16.6383 31.1716 17.3884C31.9217 18.1386 32.9392 18.56 34 18.56ZM5.42003 27.84C5.81633 27.9667 6.19839 28.1343 6.56003 28.34C7.80389 29.0676 9.21898 29.4511 10.66 29.4511C12.1011 29.4511 13.5162 29.0676 14.76 28.34C15.5422 27.9021 16.4236 27.6721 17.32 27.6721C18.2164 27.6721 19.0979 27.9021 19.88 28.34L20.3 28.54C21.5136 29.1308 22.8533 29.416 24.2023 29.3707C25.5513 29.3254 26.8688 28.9509 28.04 28.28C28.8222 27.8421 29.7036 27.6121 30.6 27.6121C31.4964 27.6121 32.3779 27.8421 33.16 28.28C34.4275 29.0044 35.8602 29.3901 37.32 29.4C38.7287 29.3854 40.1086 28.999 41.32 28.28C41.6817 28.0743 42.0637 27.9067 42.46 27.78C42.7556 27.7597 43.043 27.6739 43.3014 27.5289C43.5598 27.3839 43.7828 27.1833 43.9542 26.9416C44.1255 26.6999 44.2411 26.4231 44.2924 26.1313C44.3438 25.8394 44.3296 25.5399 44.251 25.2542C44.1724 24.9685 44.0313 24.7038 43.8379 24.4793C43.6445 24.2549 43.4037 24.0761 43.1328 23.9561C42.8619 23.8361 42.5677 23.7778 42.2715 23.7854C41.9753 23.793 41.6844 23.8663 41.42 24C40.7222 24.2166 40.0512 24.5118 39.42 24.88C38.7815 25.2486 38.0573 25.4427 37.32 25.4427C36.5828 25.4427 35.8585 25.2486 35.22 24.88C33.8346 24.0984 32.2708 23.6877 30.68 23.6877C29.0893 23.6877 27.5255 24.0984 26.14 24.88C25.9519 24.972 25.7582 25.0521 25.56 25.12L28.68 22C28.7515 21.9074 28.8119 21.8067 28.86 21.7C28.9505 21.6016 29.0309 21.4944 29.1 21.38C29.1094 21.2535 29.1094 21.1265 29.1 21C29.1114 20.8736 29.1114 20.7464 29.1 20.62C29.1096 20.5002 29.1096 20.3798 29.1 20.26C29.1114 20.1336 29.1114 20.0064 29.1 19.88C29.0408 19.7624 28.974 19.6489 28.9 19.54C28.8481 19.4248 28.7808 19.3172 28.7 19.22L22.56 12.56C22.3985 12.3839 22.2094 12.2353 22 12.12C21.8606 12.1015 21.7194 12.1015 21.58 12.12C21.4674 12.1017 21.3526 12.1017 21.24 12.12C20.9738 12.0129 20.6856 11.9717 20.4 12L13.32 14.64C12.8216 14.8205 12.4151 15.1916 12.1901 15.6716C11.9651 16.1516 11.9399 16.7014 12.12 17.2C12.3006 17.6985 12.6716 18.1049 13.1516 18.3299C13.6317 18.5549 14.1814 18.5801 14.68 18.4L20.54 16.26L24.54 20.5L20.74 24.3C19.4668 23.8051 18.0997 23.5986 16.7372 23.6954C15.3746 23.7922 14.0504 24.19 12.86 24.86C12.2215 25.2286 11.4973 25.4227 10.76 25.4227C10.0228 25.4227 9.29851 25.2286 8.66003 24.86C8.02887 24.4918 7.35789 24.1966 6.66003 23.98C6.40413 23.8845 6.13138 23.8425 5.85861 23.8564C5.58584 23.8704 5.31882 23.9401 5.07401 24.0612C4.8292 24.1823 4.6118 24.3523 4.4352 24.5607C4.2586 24.769 4.12655 25.0114 4.04719 25.2727C3.96783 25.534 3.94284 25.8089 3.97376 26.0802C4.00468 26.3516 4.09086 26.6138 4.22698 26.8506C4.3631 27.0874 4.54628 27.2938 4.76523 27.4571C4.98418 27.6204 5.23425 27.7371 5.50003 27.8L5.42003 27.84ZM41.42 34.02C40.7222 34.2366 40.0512 34.5318 39.42 34.9C38.7815 35.2686 38.0573 35.4627 37.32 35.4627C36.5828 35.4627 35.8585 35.2686 35.22 34.9C33.8346 34.1184 32.2708 33.7077 30.68 33.7077C29.0893 33.7077 27.5255 34.1184 26.14 34.9C25.4961 35.2741 24.7647 35.4712 24.02 35.4712C23.2753 35.4712 22.5439 35.2741 21.9 34.9C20.5146 34.1184 18.9508 33.7077 17.36 33.7077C15.7693 33.7077 14.2055 34.1184 12.82 34.9C12.1815 35.2686 11.4573 35.4627 10.72 35.4627C9.98277 35.4627 9.25851 35.2686 8.62003 34.9C7.98887 34.5318 7.31789 34.2366 6.62003 34.02C6.36413 33.9245 6.09138 33.8825 5.81861 33.8964C5.54584 33.9104 5.27882 33.9801 5.03401 34.1012C4.7892 34.2223 4.5718 34.3923 4.3952 34.6007C4.2186 34.809 4.08655 35.0514 4.00719 35.3127C3.92783 35.574 3.90284 35.8489 3.93376 36.1203C3.96468 36.3916 4.05086 36.6538 4.18698 36.8906C4.3231 37.1274 4.50628 37.3338 4.72523 37.4971C4.94418 37.6603 5.19425 37.7771 5.46003 37.84C5.85633 37.9667 6.23839 38.1343 6.60003 38.34C7.84389 39.0676 9.25898 39.4511 10.7 39.4511C12.1411 39.4511 13.5562 39.0676 14.8 38.34C15.5822 37.9021 16.4636 37.6721 17.36 37.6721C18.2564 37.6721 19.1379 37.9021 19.92 38.34C21.1746 39.0574 22.5948 39.4348 24.04 39.4348C25.4853 39.4348 26.9054 39.0574 28.16 38.34C28.9422 37.9021 29.8236 37.6721 30.72 37.6721C31.6164 37.6721 32.4979 37.9021 33.28 38.34C34.5475 39.0644 35.9802 39.4501 37.44 39.46C38.8487 39.4454 40.2286 39.059 41.44 38.34C41.8017 38.1343 42.1837 37.9667 42.58 37.84C42.8322 37.7638 43.0668 37.6388 43.2706 37.4719C43.4744 37.305 43.6434 37.0997 43.7678 36.8675C43.8922 36.6354 43.9697 36.381 43.9958 36.1189C44.022 35.8568 43.9962 35.5921 43.92 35.34C43.8439 35.0879 43.7188 34.8532 43.5519 34.6494C43.3851 34.4456 43.1797 34.2767 42.9476 34.1522C42.7154 34.0278 42.461 33.9503 42.1989 33.9242C41.9368 33.8981 41.6722 33.9238 41.42 34V34.02Z" fill="#09006B"/>
<circle cx="34.5" cy="14.5" r="4.5" fill="#FF658A"/>
</svg>
