<svg width="51" height="51" viewBox="0 0 51 51" fill="none" xmlns="http://www.w3.org/2000/svg">
<path d="M14.0675 27.795C13.8038 27.8904 13.5643 28.0427 13.366 28.241C13.1677 28.4393 13.0154 28.6788 12.92 28.9425C12.7654 29.3287 12.7276 29.7517 12.8112 30.1592C12.8948 30.5667 13.0961 30.9407 13.3902 31.2348C13.6844 31.5289 14.0583 31.7302 14.4658 31.8138C14.8733 31.8974 15.2963 31.8596 15.6825 31.705C15.94 31.5974 16.1772 31.4465 16.3838 31.2588C16.5715 31.0522 16.7224 30.815 16.83 30.5575C16.949 30.3053 17.0072 30.0288 17 29.75C16.9922 29.1874 16.7721 28.6485 16.3838 28.2413C16.0849 27.9464 15.7055 27.7466 15.2932 27.6672C14.881 27.5878 14.4545 27.6323 14.0675 27.795ZM41.99 19.295L39.1 10.7312C38.6592 9.48436 37.8415 8.40544 36.7602 7.64397C35.6789 6.88249 34.3875 6.47615 33.065 6.48125H17.935C16.6125 6.47615 15.3211 6.88249 14.2398 7.64397C13.1585 8.40544 12.3408 9.48436 11.9 10.7312L9.01 19.3587C7.65069 19.7147 6.44707 20.5098 5.58626 21.6204C4.72545 22.731 4.25569 24.0949 4.25 25.5V34C4.2537 35.3153 4.66412 36.5972 5.42499 37.67C6.18587 38.7429 7.25996 39.5541 8.5 39.9925V42.5C8.5 43.0636 8.72388 43.6041 9.1224 44.0026C9.52091 44.4011 10.0614 44.625 10.625 44.625C11.1886 44.625 11.7291 44.4011 12.1276 44.0026C12.5261 43.6041 12.75 43.0636 12.75 42.5V40.375H38.25V42.5C38.25 43.0636 38.4739 43.6041 38.8724 44.0026C39.2709 44.4011 39.8114 44.625 40.375 44.625C40.9386 44.625 41.4791 44.4011 41.8776 44.0026C42.2761 43.6041 42.5 43.0636 42.5 42.5V39.9925C43.74 39.5541 44.8141 38.7429 45.575 37.67C46.3359 36.5972 46.7463 35.3153 46.75 34V25.5C46.7443 24.0949 46.2745 22.731 45.4137 21.6204C44.5529 20.5098 43.3493 19.7147 41.99 19.3587V19.295ZM15.9162 12.07C16.0588 11.6479 16.3304 11.2813 16.6927 11.022C17.0549 10.7627 17.4895 10.6238 17.935 10.625H33.065C33.5284 10.6008 33.987 10.729 34.3707 10.9899C34.7544 11.2508 35.0421 11.6302 35.19 12.07L37.4213 19.125H13.5787L15.9162 12.07ZM42.5 34C42.5 34.5636 42.2761 35.1041 41.8776 35.5026C41.4791 35.9011 40.9386 36.125 40.375 36.125H10.625C10.0614 36.125 9.52091 35.9011 9.1224 35.5026C8.72388 35.1041 8.5 34.5636 8.5 34V25.5C8.5 24.9364 8.72388 24.3959 9.1224 23.9974C9.52091 23.5989 10.0614 23.375 10.625 23.375H40.375C40.9386 23.375 41.4791 23.5989 41.8776 23.9974C42.2761 24.3959 42.5 24.9364 42.5 25.5V34ZM35.3175 27.795C35.0538 27.8904 34.8143 28.0427 34.616 28.241C34.4177 28.4393 34.2654 28.6788 34.17 28.9425C34.0154 29.3287 33.9776 29.7517 34.0612 30.1592C34.1448 30.5667 34.3461 30.9407 34.6402 31.2348C34.9343 31.5289 35.3083 31.7302 35.7158 31.8138C36.1233 31.8974 36.5463 31.8596 36.9325 31.705C37.1962 31.6096 37.4357 31.4573 37.634 31.259C37.8323 31.0607 37.9846 30.8212 38.08 30.5575C38.199 30.3053 38.2572 30.0288 38.25 29.75C38.2422 29.1874 38.0221 28.6485 37.6337 28.2413C37.3349 27.9464 36.9555 27.7466 36.5432 27.6672C36.131 27.5878 35.7045 27.6323 35.3175 27.795V27.795ZM27.625 27.625H23.375C22.8114 27.625 22.2709 27.8489 21.8724 28.2474C21.4739 28.6459 21.25 29.1864 21.25 29.75C21.25 30.3136 21.4739 30.8541 21.8724 31.2526C22.2709 31.6511 22.8114 31.875 23.375 31.875H27.625C28.1886 31.875 28.7291 31.6511 29.1276 31.2526C29.5261 30.8541 29.75 30.3136 29.75 29.75C29.75 29.1864 29.5261 28.6459 29.1276 28.2474C28.7291 27.8489 28.1886 27.625 27.625 27.625Z" fill="#09006B"/>
<path d="M21 30H30" stroke="#FF7294" stroke-width="5" stroke-linecap="round"/>
</svg>
