<svg width="50" height="50" viewBox="0 0 50 50" fill="none" xmlns="http://www.w3.org/2000/svg">
<path d="M14.5834 26.0417C15.8195 26.0417 17.0279 25.6751 18.0557 24.9884C19.0835 24.3016 19.8846 23.3255 20.3576 22.1834C20.8307 21.0414 20.9544 19.7847 20.7133 18.5724C20.4721 17.36 19.8769 16.2463 19.0028 15.3722C18.1287 14.4982 17.0151 13.9029 15.8027 13.6618C14.5903 13.4206 13.3336 13.5444 12.1916 14.0174C11.0496 14.4905 10.0734 15.2915 9.38669 16.3194C8.69993 17.3472 8.33337 18.5555 8.33337 19.7917C8.33337 21.4493 8.99186 23.039 10.164 24.2111C11.3361 25.3832 12.9258 26.0417 14.5834 26.0417ZM14.5834 17.7083C14.9954 17.7083 15.3982 17.8305 15.7408 18.0594C16.0834 18.2884 16.3504 18.6137 16.5081 18.9944C16.6658 19.3751 16.7071 19.794 16.6267 20.1981C16.5463 20.6022 16.3479 20.9734 16.0565 21.2648C15.7652 21.5562 15.3939 21.7546 14.9898 21.835C14.5857 21.9154 14.1668 21.8741 13.7861 21.7164C13.4054 21.5587 13.0801 21.2917 12.8511 20.9491C12.6222 20.6065 12.5 20.2037 12.5 19.7917C12.5 19.2391 12.7195 18.7092 13.1102 18.3185C13.5009 17.9278 14.0308 17.7083 14.5834 17.7083ZM41.6667 13.5417H25C24.4475 13.5417 23.9176 13.7612 23.5269 14.1519C23.1362 14.5426 22.9167 15.0725 22.9167 15.625V28.125H6.25004V11.4583C6.25004 10.9058 6.03055 10.3759 5.63985 9.98519C5.24915 9.59449 4.71924 9.375 4.16671 9.375C3.61417 9.375 3.08427 9.59449 2.69357 9.98519C2.30287 10.3759 2.08337 10.9058 2.08337 11.4583V38.5417C2.08337 39.0942 2.30287 39.6241 2.69357 40.0148C3.08427 40.4055 3.61417 40.625 4.16671 40.625C4.71924 40.625 5.24915 40.4055 5.63985 40.0148C6.03055 39.6241 6.25004 39.0942 6.25004 38.5417V32.2917H43.75V38.5417C43.75 39.0942 43.9695 39.6241 44.3602 40.0148C44.7509 40.4055 45.2808 40.625 45.8334 40.625C46.3859 40.625 46.9158 40.4055 47.3065 40.0148C47.6972 39.6241 47.9167 39.0942 47.9167 38.5417V19.7917C47.9167 18.1341 47.2582 16.5444 46.0861 15.3722C44.914 14.2001 43.3243 13.5417 41.6667 13.5417ZM43.75 28.125H27.0834V17.7083H41.6667C42.2192 17.7083 42.7491 17.9278 43.1399 18.3185C43.5306 18.7092 43.75 19.2391 43.75 19.7917V28.125Z" fill="#09006B"/>
<path d="M25 9H38" stroke="#FF7294" stroke-width="3" stroke-linecap="round"/>
</svg>
