<svg width="43" height="43" viewBox="0 0 43 43" fill="none" xmlns="http://www.w3.org/2000/svg">
<path d="M10 18V21.75V25.5" stroke="#FF7294" stroke-width="5" stroke-linecap="round"/>
<path d="M15.9458 30.4583C15.5915 30.4583 15.2451 30.5634 14.9504 30.7603C14.6558 30.9572 14.4262 31.237 14.2906 31.5644C14.1549 31.8917 14.1195 32.252 14.1886 32.5995C14.2577 32.9471 14.4284 33.2663 14.6789 33.5169C14.9295 33.7675 15.2488 33.9381 15.5963 34.0072C15.9439 34.0764 16.3041 34.0409 16.6315 33.9053C16.9589 33.7697 17.2387 33.54 17.4356 33.2454C17.6324 32.9508 17.7375 32.6044 17.7375 32.25C17.7375 31.7748 17.5487 31.3191 17.2127 30.9831C16.8767 30.6471 16.421 30.4583 15.9458 30.4583ZM10.5708 30.4583C10.2165 30.4583 9.87008 30.5634 9.57544 30.7603C9.28081 30.9572 9.05116 31.237 8.91556 31.5644C8.77995 31.8917 8.74447 32.252 8.8136 32.5995C8.88273 32.9471 9.05337 33.2663 9.30394 33.5169C9.55451 33.7675 9.87376 33.9381 10.2213 34.0072C10.5689 34.0764 10.9291 34.0409 11.2565 33.9053C11.5839 33.7697 11.8637 33.54 12.0606 33.2454C12.2574 32.9508 12.3625 32.6044 12.3625 32.25C12.3625 31.7748 12.1737 31.3191 11.8377 30.9831C11.5017 30.6471 11.046 30.4583 10.5708 30.4583ZM21.3208 30.4583C20.9665 30.4583 20.6201 30.5634 20.3254 30.7603C20.0308 30.9572 19.8012 31.237 19.6656 31.5644C19.5299 31.8917 19.4945 32.252 19.5636 32.5995C19.6327 32.9471 19.8034 33.2663 20.0539 33.5169C20.3045 33.7675 20.6238 33.9381 20.9713 34.0072C21.3189 34.0764 21.6791 34.0409 22.0065 33.9053C22.3339 33.7697 22.6137 33.54 22.8106 33.2454C23.0074 32.9508 23.1125 32.6044 23.1125 32.25C23.1125 31.7748 22.9237 31.3191 22.5877 30.9831C22.2517 30.6471 21.796 30.4583 21.3208 30.4583ZM26.875 15.2292C27.0325 14.9577 27.2586 14.7323 27.5306 14.5756C27.8025 14.419 28.1109 14.3365 28.4248 14.3365C28.7387 14.3365 29.0471 14.419 29.319 14.5756C29.591 14.7323 29.8171 14.9577 29.9746 15.2292C30.2109 15.639 30.5998 15.9387 31.0563 16.0629C31.5128 16.1871 31.9999 16.1257 32.4113 15.8921C32.6226 15.7812 32.8096 15.6291 32.9614 15.4449C33.1132 15.2607 33.2266 15.048 33.295 14.8194C33.3634 14.5907 33.3855 14.3507 33.3599 14.1134C33.3343 13.8761 33.2615 13.6463 33.1458 13.4375C32.6746 12.6188 31.9958 11.9387 31.178 11.4659C30.3602 10.993 29.4322 10.744 28.4875 10.744C27.5428 10.744 26.6148 10.993 25.797 11.4659C24.9792 11.9387 24.3005 12.6188 23.8292 13.4375C23.6779 13.8332 23.6718 14.2698 23.8118 14.6696C23.9519 15.0695 24.2291 15.4067 24.5943 15.6215C24.9595 15.8363 25.389 15.9148 25.8065 15.843C26.224 15.7711 26.6026 15.5537 26.875 15.2292ZM39.4167 9.85417C38.3154 7.94942 36.7324 6.36791 34.8266 5.2684C32.9209 4.1689 30.7594 3.59009 28.5592 3.59009C26.359 3.59009 24.1975 4.1689 22.2917 5.2684C20.3859 6.36791 18.803 7.94942 17.7017 9.85417C17.5832 10.0587 17.5064 10.2846 17.4756 10.5189C17.4448 10.7532 17.4607 10.9913 17.5223 11.2194C17.5839 11.4476 17.6901 11.6613 17.8346 11.8482C17.9792 12.0352 18.1593 12.1917 18.3646 12.3088C18.6111 12.4491 18.8874 12.529 19.1708 12.5417C19.4866 12.5429 19.797 12.4607 20.0707 12.3034C20.3444 12.1461 20.5717 11.9193 20.7296 11.6458C21.5159 10.2841 22.6467 9.15332 24.0085 8.36714C25.3703 7.58095 26.9151 7.16706 28.4875 7.16706C30.0599 7.16706 31.6047 7.58095 32.9665 8.36714C34.3283 9.15332 35.4591 10.2841 36.2454 11.6458C36.3625 11.8511 36.519 12.0313 36.7059 12.1758C36.8929 12.3204 37.1066 12.4265 37.3348 12.4881C37.5629 12.5498 37.801 12.5656 38.0353 12.5348C38.2696 12.5041 38.4955 12.4272 38.7 12.3088C38.9098 12.1963 39.0951 12.0431 39.2451 11.8582C39.395 11.6733 39.5066 11.4604 39.5733 11.2318C39.6401 11.0033 39.6606 10.7638 39.6337 10.5272C39.6068 10.2907 39.533 10.0619 39.4167 9.85417V9.85417ZM32.0708 25.0833H30.2792V19.7083C30.2792 19.2332 30.0904 18.7774 29.7544 18.4414C29.4184 18.1054 28.9627 17.9167 28.4875 17.9167C28.0123 17.9167 27.5566 18.1054 27.2206 18.4414C26.8846 18.7774 26.6958 19.2332 26.6958 19.7083V25.0833H8.77917C7.35364 25.0833 5.98648 25.6496 4.97848 26.6576C3.97047 27.6656 3.40417 29.0328 3.40417 30.4583V34.0417C3.40417 35.4672 3.97047 36.8344 4.97848 37.8424C5.98648 38.8504 7.35364 39.4167 8.77917 39.4167H32.0708C33.4964 39.4167 34.8635 38.8504 35.8715 37.8424C36.8795 36.8344 37.4458 35.4672 37.4458 34.0417V30.4583C37.4458 29.0328 36.8795 27.6656 35.8715 26.6576C34.8635 25.6496 33.4964 25.0833 32.0708 25.0833ZM33.8625 34.0417C33.8625 34.5168 33.6737 34.9726 33.3377 35.3086C33.0017 35.6446 32.546 35.8333 32.0708 35.8333H8.77917C8.304 35.8333 7.84828 35.6446 7.51227 35.3086C7.17627 34.9726 6.98751 34.5168 6.98751 34.0417V30.4583C6.98751 29.9832 7.17627 29.5274 7.51227 29.1914C7.84828 28.8554 8.304 28.6667 8.77917 28.6667H32.0708C32.546 28.6667 33.0017 28.8554 33.3377 29.1914C33.6737 29.5274 33.8625 29.9832 33.8625 30.4583V34.0417Z" fill="#09006B"/>
</svg>
