<svg width="42" height="42" viewBox="0 0 42 42" fill="none" xmlns="http://www.w3.org/2000/svg">
<path d="M18 18H21.75H25.5" stroke="#FF7294" stroke-width="5" stroke-linecap="round"/>
<path d="M33.25 5.25H8.75C7.35761 5.25 6.02226 5.80312 5.03769 6.78769C4.05312 7.77226 3.5 9.10761 3.5 10.5V24.5C3.5 25.8924 4.05312 27.2277 5.03769 28.2123C6.02226 29.1969 7.35761 29.75 8.75 29.75H19.25V33.25H12.25C11.7859 33.25 11.3408 33.4344 11.0126 33.7626C10.6844 34.0908 10.5 34.5359 10.5 35C10.5 35.4641 10.6844 35.9092 11.0126 36.2374C11.3408 36.5656 11.7859 36.75 12.25 36.75H29.75C30.2141 36.75 30.6592 36.5656 30.9874 36.2374C31.3156 35.9092 31.5 35.4641 31.5 35C31.5 34.5359 31.3156 34.0908 30.9874 33.7626C30.6592 33.4344 30.2141 33.25 29.75 33.25H22.75V29.75H33.25C34.6424 29.75 35.9777 29.1969 36.9623 28.2123C37.9469 27.2277 38.5 25.8924 38.5 24.5V10.5C38.5 9.10761 37.9469 7.77226 36.9623 6.78769C35.9777 5.80312 34.6424 5.25 33.25 5.25ZM35 24.5C35 24.9641 34.8156 25.4092 34.4874 25.7374C34.1592 26.0656 33.7141 26.25 33.25 26.25H8.75C8.28587 26.25 7.84075 26.0656 7.51256 25.7374C7.18437 25.4092 7 24.9641 7 24.5V10.5C7 10.0359 7.18437 9.59075 7.51256 9.26256C7.84075 8.93437 8.28587 8.75 8.75 8.75H33.25C33.7141 8.75 34.1592 8.93437 34.4874 9.26256C34.8156 9.59075 35 10.0359 35 10.5V24.5Z" fill="#09006B"/>
</svg>
